<svg width="22" height="21" viewBox="0 0 22 21" fill="none" xmlns="http://www.w3.org/2000/svg">
<path d="M10.9998 7.2998C9.09981 7.2998 7.5998 8.8002 7.5998 10.7002C7.5998 12.6002 9.09981 14.1001 10.9998 14.1001C12.8998 14.1001 14.3998 12.6002 14.3998 10.7002C14.3998 8.8002 12.8998 7.2998 10.9998 7.2998ZM21.1998 10.7002C21.1998 9.3002 21.1998 7.9 21.0998 6.5C20.9998 4.9 20.6998 3.3998 19.4998 2.2998C18.2998 1.0998 16.8998 0.700195 15.1998 0.700195C13.7998 0.600195 12.3998 0.600098 10.9998 0.600098C9.59981 0.600098 8.19981 0.600195 6.79981 0.700195C5.19981 0.800195 3.69981 1.1998 2.49981 2.2998C1.29981 3.4998 0.899807 4.9 0.899807 6.5C0.799807 7.9 0.799805 9.3002 0.799805 10.7002C0.799805 12.1002 0.799807 13.4999 0.899807 14.8999C0.999807 16.4999 1.29981 18.0001 2.49981 19.1001C3.69981 20.3001 5.09981 20.7002 6.79981 20.7002C8.19981 20.8002 9.59981 20.7998 10.9998 20.7998C12.3998 20.7998 13.7998 20.8002 15.1998 20.7002C16.7998 20.6002 18.2998 20.2001 19.4998 19.1001C20.6998 17.9001 21.0998 16.4999 21.0998 14.8999C21.1998 13.3999 21.1998 12.1002 21.1998 10.7002ZM10.9998 15.8999C8.09981 15.8999 5.79981 13.6002 5.79981 10.7002C5.79981 7.8002 8.09981 5.5 10.9998 5.5C13.8998 5.5 16.1998 7.8002 16.1998 10.7002C16.1998 13.6002 13.8998 15.8999 10.9998 15.8999ZM16.3998 6.5C15.6998 6.5 15.1998 5.9998 15.1998 5.2998C15.1998 4.5998 15.6998 4.1001 16.3998 4.1001C17.0998 4.1001 17.5998 4.6998 17.5998 5.2998C17.5998 5.4998 17.5998 5.5998 17.4998 5.7998C17.3998 5.8998 17.2998 6.1002 17.1998 6.2002C17.0998 6.3002 16.9998 6.4 16.7998 6.5C16.6998 6.4 16.5998 6.5 16.3998 6.5Z" fill="white"/>
</svg>
