<svg width="21" height="21" viewBox="0 0 21 21" fill="none" xmlns="http://www.w3.org/2000/svg">
<path fill-rule="evenodd" clip-rule="evenodd" d="M5.5002 3.1001C5.5002 4.3999 4.40021 5.5 3.1002 5.5C1.8002 5.5 0.700195 4.3999 0.700195 3.1001C0.700195 1.80029 1.8002 0.700195 3.1002 0.700195C4.40021 0.700195 5.5002 1.80029 5.5002 3.1001ZM7.7 20.3999V7.2998H11.6V9.1001H11.7C12.2 8.1001 13.5 7 15.5 7C19.6 7 20.4 9.7002 20.4 13.2002V20.3999H16.3V14C16.3 12.5 16.3 10.5 14.2 10.5C12.1 10.5 11.8 12.1997 11.8 13.8999V20.3999H7.7ZM5.10001 7.2998H1V20.3999H5.10001V7.2998Z" fill="white"/>
</svg>
