<svg width="22" height="17" viewBox="0 0 22 17" fill="none" xmlns="http://www.w3.org/2000/svg">
<path d="M21.1998 2.1001C20.3998 2.4001 19.5998 2.6998 18.6998 2.7998C19.5998 2.2998 20.2998 1.3999 20.5998 0.399902C19.7998 0.899902 18.7998 1.2999 17.8998 1.3999C17.4998 0.999902 16.9998 0.599902 16.4998 0.399902C15.9998 0.199902 15.3998 0 14.7998 0C12.3998 0 10.4998 1.8998 10.4998 4.2998C10.4998 4.5998 10.4998 4.9998 10.5998 5.2998C6.99981 5.0998 3.7998 3.3998 1.6998 0.799805C1.2998 1.4998 1.09981 2.2 1.09981 3C1.09981 4.5 1.8998 5.8001 2.9998 6.6001C2.2998 6.6001 1.59981 6.4001 1.09981 6.1001C1.09981 8.2001 2.59981 9.89981 4.59981 10.2998C4.19981 10.3998 3.7998 10.3999 3.4998 10.3999C3.1998 10.3999 2.9998 10.3998 2.6998 10.2998C3.1998 11.9998 4.7998 13.1998 6.6998 13.2998C5.1998 14.4998 3.3998 15.1001 1.2998 15.1001C0.899805 15.1001 0.599805 15.1 0.299805 15C2.1998 16.2 4.4998 16.8999 6.8998 16.8999C14.7998 16.8999 19.1998 10.3001 19.1998 4.6001C19.1998 4.4001 19.1998 4.2 19.1998 4C19.8998 3.8 20.5998 3.0001 21.1998 2.1001Z" fill="white"/>
</svg>
