<svg width="23" height="17" viewBox="0 0 23 17" fill="none" xmlns="http://www.w3.org/2000/svg">
<path d="M22.3998 3.2002C22.2998 2.7002 21.9998 2.2999 21.6998 1.8999C21.2998 1.4999 20.8998 1.3002 20.3998 1.2002C18.5998 0.700195 11.5998 0.700195 11.5998 0.700195C11.5998 0.700195 4.4998 0.700195 2.7998 1.2002C2.2998 1.3002 1.89982 1.5999 1.49982 1.8999C1.09982 2.1999 0.899805 2.7002 0.799805 3.2002C0.299805 5.0002 0.299805 8.7002 0.299805 8.7002C0.299805 8.7002 0.299805 12.4002 0.799805 14.2002C1.0998 15.2002 1.7998 15.9002 2.7998 16.2002C4.5998 16.7002 11.5998 16.7002 11.5998 16.7002C11.5998 16.7002 18.6998 16.7002 20.3998 16.2002C21.3998 15.9002 22.0998 15.2002 22.3998 14.2002C22.8998 12.4002 22.8998 8.7002 22.8998 8.7002C22.8998 8.7002 22.8998 5.0002 22.3998 3.2002ZM9.2998 12V5.2002L15.1998 8.6001L9.2998 12Z" fill="white"/>
</svg>
