<svg width="890" height="145" viewBox="0 0 890 145" fill="none" xmlns="http://www.w3.org/2000/svg">
<path d="M132.295 142.443V140.02C156.221 140.02 170.409 125.681 199.932 82.7288L158.79 22.1636C151.688 11.5728 147.662 7.43148 135.634 7.43148V5.0089H223.89V7.43148C213.891 7.43148 212.124 11.4092 212.124 16.4508C212.124 20.3794 214.202 24.177 216.493 27.9091L236.246 57.3733C249.338 38.287 258.404 24.6353 258.404 16.2053C258.404 9.80501 253.495 7.51336 245.099 7.51336V5.09073H295.651V7.51336C277.469 7.51336 268.06 17.5312 238.21 60.3033L281.102 124.142C288.516 135.028 295.978 140.037 305.208 140.037V142.459H220.666V140.037C228.276 140.037 231.009 137.188 231.009 132.458C231.009 129.299 228.669 125.01 225.461 120.427L201.83 85.6752C184.941 110.556 180.261 118.495 180.261 125.583C180.261 134.013 186.807 140.037 198.263 140.037V142.459L132.295 142.443ZM772.987 61.0563C774.198 20.9359 781.742 10.1978 790.825 10.1978C799.907 10.1978 808.924 18.9389 808.581 61.0563H772.987ZM722.141 71.5815C722.141 129.446 781.873 158.615 833.554 133.243L831.917 131.607C798.058 142.901 774.132 118.004 774.132 71.5652C774.132 69.4208 774.132 67.3583 774.132 65.3449H856.841C856.841 24.8481 833.505 0 793.018 0C754.723 0.032738 722.141 32.4269 722.141 71.5815ZM478.039 19.7901V17.4821L541.176 2.58628V24.4553C555.184 14.1428 570.093 2.68449 586.032 2.68449C602.97 2.68449 614.197 10.5907 618.386 25.5192C632.804 14.9612 648.187 2.68449 664.683 2.68449C686.547 2.68449 698.886 15.7797 698.853 40.3331V123.88C698.853 135.339 701.292 137.516 709.425 137.516V139.873H640.692V137.516C648.007 137.516 650.724 134.046 650.724 125.468V33.3436C650.724 16.8109 633.737 18.9553 619.319 29.546C619.937 33.0858 620.233 36.6744 620.203 40.2677V123.88C620.203 135.339 622.657 137.532 630.791 137.532V139.889H562.058V137.532C569.389 137.532 572.089 134.062 572.089 125.485V33.3272C572.089 16.9582 555.528 18.8898 541.225 29.1532V127.891C541.225 135.388 545.84 137.532 551.797 137.532V139.889H478.154V137.532C488.186 137.532 493.063 130.33 493.063 119.346V35.3733C492.948 24.9627 482.753 19.7901 478.039 19.7901ZM361.062 108.821C361.062 91.3389 368.721 74.4461 393.94 68.6842L394.12 110.507C393.35 121.294 385.151 127.285 377.345 127.187C368.214 127.072 361.062 121.343 361.062 108.821ZM312.752 113.83C312.752 138.809 337.071 144.931 348.428 144.931C368.836 144.931 388.948 133.571 395.478 117.742C398.031 136.337 409.061 144.931 430.024 144.931C448.402 144.931 460.3 137.401 467.86 123.438L465.978 122.244C455.979 130.837 443.067 124.388 443.067 106.922V42.8867C443.067 10.5907 401.647 -6.05651 363.991 7.07141L364.384 9.29757C385.544 9.44489 394.692 23.6041 394.692 48.5831L394.774 64.9521C333.585 72.269 312.752 88.507 312.752 113.83ZM53.3992 61.0563C54.5938 20.9359 62.1381 10.1978 71.2207 10.1978C80.3033 10.1978 89.3204 18.9389 88.9768 61.0563H53.3992ZM0 73.7913C0 136.501 71.3189 166.26 125.356 127.907L123.72 126.27C82.1853 150.464 51.9754 126.369 51.9754 73.775C51.9754 71.647 51.9754 69.5845 51.9754 67.5875H134.684C134.684 27.2707 111.348 2.55356 70.8607 2.55356C32.5828 2.56993 0 34.8332 0 73.7913ZM345.81 53.4938C348.495 53.5427 351.162 53.0497 353.652 52.0445C356.142 51.0393 358.404 49.5424 360.302 47.6432C362.201 45.744 363.698 43.4815 364.703 40.9909C365.708 38.5003 366.2 35.8326 366.152 33.1472C366.152 29.123 364.959 25.1892 362.723 21.8432C360.488 18.4972 357.311 15.8893 353.594 14.3493C349.877 12.8093 345.787 12.4064 341.841 13.1915C337.895 13.9766 334.271 15.9144 331.426 18.7599C328.581 21.6055 326.644 25.2309 325.859 29.1777C325.074 33.1246 325.477 37.2156 327.017 40.9335C328.556 44.6514 331.163 47.8291 334.509 50.0648C337.854 52.3005 341.787 53.4938 345.81 53.4938ZM869.622 144.996C872.309 145.047 874.979 144.556 877.472 143.552C879.965 142.548 882.23 141.052 884.131 139.153C886.033 137.253 887.533 134.99 888.54 132.499C889.548 130.007 890.044 127.337 889.997 124.65C889.997 120.626 888.804 116.692 886.569 113.346C884.334 110 881.157 107.392 877.44 105.852C873.723 104.312 869.633 103.909 865.687 104.694C861.741 105.479 858.116 107.417 855.271 110.263C852.427 113.108 850.489 116.733 849.704 120.68C848.919 124.627 849.322 128.718 850.862 132.436C852.402 136.154 855.009 139.332 858.354 141.567C861.699 143.803 865.632 144.996 869.655 144.996H869.622Z" fill="#1A1B1C"/>
</svg>
