<svg width="1203" height="260" viewBox="0 0 1203 260" fill="none" xmlns="http://www.w3.org/2000/svg">
<path fill-rule="evenodd" clip-rule="evenodd" d="M700.855 5.32196C691.815 9.42565 688.335 13.0492 683.979 22.8986C674.35 44.6664 680.976 63.5296 703.797 79.3289C721.289 91.4384 727.496 99.4335 727.846 110.307C728.093 117.962 726.639 121.164 720.957 125.464C714.506 130.348 712.641 130.581 703.052 127.708C697.165 125.944 692.34 123.056 692.332 121.292C692.292 112.7 686.393 98.1868 682.939 98.1868C679.936 98.1868 679.085 102.28 679.085 116.705C679.085 134.674 679.302 135.279 686.38 137.139C701.044 140.99 722.536 139.425 732.159 133.807C750.935 122.841 758.702 95.6588 748.94 75.0873C746.248 69.4106 737.55 60.7018 726.674 52.7916C716.856 45.6532 708.102 37.926 707.219 35.6235C702.036 22.1134 710.049 10.6485 724.676 10.6485C732.809 10.6485 736.038 15.044 738.831 29.9282C739.916 35.7163 742.218 39.8279 744.37 39.8279C750.068 39.8279 749.585 3.84707 743.858 1.648C735.16 -1.68906 711.933 0.295141 700.855 5.32196ZM0 6.66952C0 8.87919 2.35823 10.6485 5.30535 10.6485C10.4515 10.6485 10.6107 12.4179 10.6107 69.2567C10.6107 125.631 10.4091 127.915 5.30535 129.25C2.38741 130.014 0 132.29 0 134.308C0 137.2 5.90751 137.977 27.8531 137.977C50.2682 137.977 55.7062 137.234 55.7062 134.173C55.7062 131.998 52.5866 130.014 48.4113 129.531L41.1165 128.693L39.6018 73.9626L48.1646 74.8008C55.3215 75.5011 57.0909 77.0529 58.9451 84.2602C62.9533 99.8421 66.3169 93.4889 66.3169 70.3337C66.3169 47.1785 62.9533 40.8254 58.9451 56.4072C57.0988 63.588 55.3109 65.1663 48.2575 65.8586L39.7901 66.6916V10.6485H50.2576C60.6401 10.6485 60.7754 10.7812 66.5291 26.5646C74.7762 49.1839 79.5802 47.7197 79.5802 22.5856V2.69051H39.7901C6.18869 2.69051 0 3.30858 0 6.66952ZM785.192 5.4095C785.192 6.90295 788.2 9.27179 791.876 10.6671L798.559 13.2084L797.845 70.9518C797.131 128.565 797.115 128.695 791.16 129.541C787.876 130.006 785.192 132.096 785.192 134.184C785.192 137.232 790.656 137.977 813.045 137.977C835.46 137.977 840.898 137.234 840.898 134.173C840.898 131.998 837.778 130.014 833.603 129.531C826.332 128.695 826.305 128.616 825.542 105.482L824.775 82.2707H835.574C849.548 82.2707 863.244 76.4561 868.629 68.2381C880.234 50.5262 874.831 14.6143 859.358 6.61381C850.275 1.91592 785.192 0.86016 785.192 5.4095ZM838.187 15.3729C843.139 19.3838 844.055 22.8933 844.246 38.5838C844.368 48.7515 843.582 59.7575 842.503 63.0415C840.325 69.6626 831.616 75.4481 827.579 72.9519C824.701 71.1719 823.934 15.2323 826.751 12.4179C829.507 9.65908 831.892 10.2745 838.187 15.3729ZM115.667 18.7074C94.2601 25.1136 83.2781 49.9267 85.5726 86.7034C87.9123 124.212 100.881 139.431 130.169 139.033C150.086 138.762 160.261 132.396 168.859 114.822C175.14 101.98 175.591 98.7067 174.681 72.3577C173.856 48.4173 172.729 42.2445 167.705 34.1273C158.261 18.8771 136.578 12.4523 115.667 18.7074ZM1144.91 18.7074C1123.61 25.0791 1112.52 49.9532 1114.78 86.2391C1117.15 124.175 1129.87 139.147 1159.54 138.935C1177.94 138.805 1191.06 131.457 1198.06 117.376C1202.04 109.384 1202.99 101.325 1202.99 75.6391C1202.99 47.1599 1202.35 42.7883 1196.97 34.1273C1187.48 18.8745 1165.81 12.455 1144.91 18.7074ZM180.382 21.5086C180.382 23.1028 182.769 25.034 185.687 25.7953C190.762 27.1243 190.993 29.4135 190.993 78.6021C190.993 128.25 190.81 130.019 185.687 130.019C182.74 130.019 180.382 131.788 180.382 133.998C180.382 137.33 185.982 137.977 214.867 137.977H249.351V119.188C249.351 96.7888 245.797 95.8896 238.162 116.355C233.247 129.528 232.478 130.274 224.573 129.507L216.193 128.693L215.471 79.0796C214.782 31.6179 214.983 29.3419 220.114 26.5964C230.544 21.0152 225.363 18.6066 202.93 18.6066C188.38 18.6066 180.382 19.6358 180.382 21.5086ZM252.004 21.5086C252.004 23.1028 254.392 25.034 257.309 25.7953C262.384 27.1216 262.615 29.4135 262.615 78.2917C262.615 127.17 262.384 129.462 257.309 130.788C254.392 131.549 252.004 133.481 252.004 135.075C252.004 136.948 260.002 137.977 274.552 137.977C288.271 137.977 297.1 136.905 297.1 135.242C297.1 133.735 295.309 131.817 293.121 130.979C289.996 129.78 289.142 124.382 289.142 105.861V82.2707H313.016V105.861C313.016 124.382 312.161 129.78 309.037 130.979C306.848 131.817 305.058 133.735 305.058 135.242C305.058 136.905 313.886 137.977 327.605 137.977C342.155 137.977 350.153 136.948 350.153 135.075C350.153 133.481 347.766 131.549 344.848 130.788C339.773 129.462 339.542 127.17 339.542 78.2652C339.542 35.26 340.174 26.8882 343.521 25.6043C345.71 24.7661 347.5 22.8482 347.5 21.3415C347.5 19.6915 339.089 18.6066 326.279 18.6066C313.469 18.6066 305.058 19.6915 305.058 21.3415C305.058 22.8482 306.848 24.7661 309.037 25.6043C312.161 26.8033 313.016 32.2015 313.016 50.7225V74.3127H289.142V50.7225C289.142 32.2015 289.996 26.8033 293.121 25.6043C295.309 24.7661 297.1 22.8482 297.1 21.3415C297.1 19.6782 288.271 18.6066 274.552 18.6066C260.002 18.6066 252.004 19.6358 252.004 21.5086ZM388.864 23.2487C388.073 25.8033 381.977 48.7807 375.314 74.3127C359.875 133.489 361.042 130.019 356.607 130.019C354.517 130.019 352.806 131.809 352.806 133.998C352.806 137.054 356.196 137.977 367.395 137.977C378.595 137.977 381.985 137.054 381.985 133.998C381.985 131.804 379.635 130.019 376.746 130.019C372.266 130.019 371.746 128.772 373.162 121.398C376.762 102.641 378.303 100.839 390.784 100.839C402.047 100.839 402.456 101.139 405.628 111.726C407.422 117.713 409.47 124.122 410.178 125.968C410.886 127.812 409.011 129.963 406.01 130.748C403.008 131.534 400.554 133.481 400.554 135.075C400.554 136.961 408.918 137.977 424.428 137.977C448.596 137.977 452.456 136.269 443.177 129.679C438.323 126.234 434.872 116.35 412.504 41.8175C405.849 19.6437 405.199 18.6066 397.92 18.6066C392.98 18.6066 389.795 20.2379 388.864 23.2487ZM474.829 21.2858C474.829 23.002 477.216 25.034 480.134 25.7953C485.209 27.1216 485.439 29.4135 485.439 78.2917C485.439 127.17 485.209 129.462 480.134 130.788C477.216 131.549 474.829 133.481 474.829 135.075C474.829 136.99 484.073 137.958 502.019 137.919C536.485 137.844 548.616 133.117 557.51 116.291C565.946 100.341 566.449 57.1871 558.388 41.3267C548.995 22.8429 542.496 20.0549 506.478 19.0469C483.466 18.4049 474.829 19.0151 474.829 21.2858ZM565.02 21.5086C565.02 23.1028 567.407 25.034 570.325 25.7953C575.4 27.1243 575.63 29.4135 575.63 78.6021C575.63 128.25 575.447 130.019 570.325 130.019C567.378 130.019 565.02 131.788 565.02 133.998C565.02 137.346 570.914 137.977 602.157 137.977H639.295V120.735C639.295 99.163 634.443 97.7199 626.464 116.92C621.023 130.014 620.633 130.327 610.858 129.52L600.831 128.693L599.298 82.2707H607.149C613.715 82.2707 615.285 83.5732 616.747 90.2288C619.927 104.707 623.379 98.4945 623.379 78.2917C623.379 57.9988 619.925 51.8923 616.712 66.5085C615.206 73.3763 613.853 74.4931 607.882 73.8034C600.865 72.9917 600.831 72.875 600.831 50.4386V27.8909H609.77C617.893 27.8909 619.134 28.9732 623.331 39.7059C630.366 57.7017 633.989 56.4655 633.989 36.0691V18.6066H599.504C576.315 18.6066 565.02 19.5562 565.02 21.5086ZM886.105 74.1217C874.696 118.488 870.852 129.892 866.974 130.905C864.302 131.603 862.119 133.481 862.119 135.075C862.119 136.852 868.284 137.977 878.035 137.977C893.827 137.977 899.907 133.733 888.421 130.727C883.667 129.486 883.126 127.934 884.582 119.703C887.863 101.142 888.123 100.839 900.827 100.839C911.284 100.839 912.974 101.683 915.433 108.134C920.99 122.721 921.457 130.019 916.831 130.019C914.459 130.019 912.52 131.809 912.52 133.998C912.52 137.239 916.942 137.977 936.394 137.977C951.904 137.977 960.268 136.961 960.268 135.075C960.268 133.481 957.918 131.56 955.042 130.809C949.573 129.377 949.419 128.958 926.982 53.781C916.526 18.7471 916.478 18.6596 908.44 18.6331L900.384 18.6066L886.105 74.1217ZM952.31 21.1266C952.31 22.5139 953.987 24.6016 956.035 25.7688C958.95 27.4293 960 38.2867 960.86 75.6391C961.467 101.901 962.918 125.52 964.088 128.128C969.12 139.34 998.652 144.784 1014.72 137.46C1027.47 131.65 1029.24 123.873 1029.24 73.4267C1029.24 29.4135 1029.49 27.1163 1034.54 25.7953C1045.38 22.9622 1039.75 18.6066 1025.26 18.6066C1010.77 18.6066 1005.14 22.9622 1015.97 25.7953C1021.02 27.1163 1021.28 29.4136 1021.28 73.4161C1021.28 118.965 1021.18 119.745 1014.77 126.159C1006.62 134.311 996.387 134.574 990.925 126.775C987.564 121.981 986.795 112.14 986.795 74.0315C986.795 29.4135 987.047 27.1163 992.1 25.7953C995.018 25.034 997.406 23.1028 997.406 21.5086C997.406 19.6358 989.408 18.6066 974.858 18.6066C962.38 18.6066 952.31 19.7313 952.31 21.1266ZM1042.5 21.5086C1042.5 23.1028 1044.89 25.034 1047.81 25.7953C1052.88 27.1216 1053.11 29.4135 1053.11 78.2917C1053.11 127.17 1052.88 129.462 1047.81 130.788C1044.89 131.549 1042.5 133.481 1042.5 135.075C1042.5 137.027 1053.8 137.977 1076.99 137.977H1111.47V119.408C1111.47 96.131 1106.48 94.4916 1099.83 115.583C1095.37 129.748 1094.85 130.295 1086.75 129.51L1078.31 128.693L1077.59 79.0796C1076.9 31.6179 1077.1 29.3419 1082.23 26.5964C1092.66 21.0152 1087.48 18.6066 1065.05 18.6066C1050.5 18.6066 1042.5 19.6358 1042.5 21.5086ZM143.226 33.1963C146.226 39.1674 147.223 50.5394 147.223 78.7613C147.223 112.819 146.698 117.074 141.653 123.857C129.92 139.627 118.153 132.531 114.001 107.174C108.908 76.0767 112.381 38.4061 121.243 28.6124C127.835 21.3308 138.366 23.5273 143.226 33.1963ZM1171.76 31.09C1175.72 37.1408 1176.46 44.4012 1176.46 77.3182C1176.46 112.843 1175.96 117.042 1170.89 123.857C1163.94 133.194 1156.41 134.523 1150.08 127.528C1138.63 114.877 1138.35 47.847 1149.68 30.5622C1155.59 21.5404 1165.66 21.7818 1171.76 31.09ZM527.19 30.6205C535.254 36.2707 538.464 50.2185 538.464 79.6181C538.464 111.145 535.151 124.098 526.224 127.494C511.632 133.04 511.966 134.197 511.966 78.2917C511.966 30.4905 512.324 26.5646 516.68 26.5646C519.274 26.5646 524.004 28.3896 527.19 30.6205ZM394.877 76.4296L399.997 92.8814H380.057L384.168 75.6921C386.431 66.238 388.614 58.8344 389.02 59.2402C389.426 59.6461 392.06 67.3813 394.877 76.4296ZM909.828 90.8919C909.849 91.9875 905.559 92.8814 900.297 92.8814C889.689 92.8814 889.922 94.6985 897.042 67.681L899.835 57.0703L904.814 72.9864C907.549 81.7402 909.806 89.7964 909.828 90.8919ZM758.028 117.419C753.712 120.745 752.46 124.735 753.047 133.284C753.447 139.141 765.384 142.306 770.636 137.948C776.377 133.184 775.645 120.164 769.451 116.848C763.052 113.426 763.222 113.416 758.028 117.419Z" fill="#1A1B1C"/>
<path d="M602.157 180.42L611.09 207.914H640L616.612 224.906L625.545 252.401L602.157 235.408L578.769 252.401L587.702 224.906L564.314 207.914H593.224L602.157 180.42Z" fill="#1A1B1C"/>
<path d="M496.05 180.42L504.984 207.914H533.893L510.505 224.906L519.438 252.401L496.05 235.408L472.662 252.401L481.596 224.906L458.207 207.914H487.117L496.05 180.42Z" fill="#1A1B1C"/>
<path d="M708.264 180.42L717.198 207.914H746.107L722.719 224.906L731.652 252.401L708.264 235.408L684.876 252.401L693.81 224.906L670.421 207.914H699.331L708.264 180.42Z" fill="#1A1B1C"/>
</svg>
