<svg width="837" height="837" viewBox="0 0 837 837" fill="none" xmlns="http://www.w3.org/2000/svg">
<path d="M418.501 837C649.488 837 837 648.982 837 418.501C837 188.015 649.488 0 418.501 0C187.512 0 0 188.015 0 418.501C0 648.982 187.512 837 418.501 837ZM89.9976 578.437C84.7786 526.466 84.4726 472.841 84.4726 418.501C84.4726 364.159 84.7786 310.534 89.9976 258.563C92.8354 230.259 106.928 223.767 133.181 221.005C223.944 211.458 324.447 209.247 418.501 209.536C512.556 209.247 613.058 211.458 703.821 221.005C730.074 223.767 744.167 230.259 747.005 258.563C752.221 310.534 752.53 364.159 752.53 418.501C752.53 472.841 752.221 526.466 747.005 578.437C744.167 606.741 730.074 613.231 703.821 615.992C613.058 625.54 512.556 627.753 418.501 627.464C324.447 627.753 223.944 625.54 133.181 615.992C106.928 613.231 92.8354 606.741 89.9976 578.437" fill="#1A1B1C"/>
<path d="M418.501 587.012C512.198 587.012 587.706 511.304 587.706 418.501C587.706 325.695 512.198 249.987 418.501 249.987C324.805 249.987 249.299 325.695 249.299 418.501C249.299 511.304 324.805 587.012 418.501 587.012Z" fill="#1A1B1C"/>
</svg>
