<svg width="802" height="208" viewBox="0 0 802 208" fill="none" xmlns="http://www.w3.org/2000/svg">
<path fill-rule="evenodd" clip-rule="evenodd" d="M51.2915 178.529C85.297 178.529 87.2807 154.441 87.2807 103.717C87.2807 54.4087 85.0136 29.7548 50.7248 29.7548H31.455V178.245L51.2915 178.529ZM0.283378 3.11719H51.0082C74.2452 3.11719 89.8311 8.78476 99.4659 18.703C117.319 36.2725 118.736 67.1608 118.736 103.717C118.736 142.823 117.319 174.278 97.4823 190.997C87.2807 199.782 72.545 204.599 50.158 204.599H0L0.283378 3.11719Z" fill="#1A1B1C"/>
<path fill-rule="evenodd" clip-rule="evenodd" d="M141.406 67.1608H170.027V204.316H141.406V67.1608Z" fill="#1A1B1C"/>
<path fill-rule="evenodd" clip-rule="evenodd" d="M195.815 67.7275L220.752 66.594L223.019 79.6294C227.836 70.2779 238.321 64.0436 261.558 64.0436C274.877 64.0436 283.662 67.4442 289.33 72.8284C296.414 80.1962 298.398 91.8147 298.398 106.834V204.316H268.076V115.619C268.076 93.515 264.109 87.8474 249.94 87.8474C228.687 87.8474 225.853 100.599 225.853 123.837V204.316H196.098V67.7275H195.815Z" fill="#1A1B1C"/>
<path fill-rule="evenodd" clip-rule="evenodd" d="M323.902 6.51772H353.657V78.4959C359.041 70.8447 369.242 64.8937 389.646 64.8937C402.965 64.8937 411.749 68.2943 417.417 73.6785C424.501 81.0463 426.485 92.6648 426.485 107.401V204.316H396.163V116.185C396.163 94.3651 392.196 88.6976 378.027 88.6976C356.774 88.6976 353.94 101.45 353.94 124.403V204.316H324.185V6.51772H323.902Z" fill="#1A1B1C"/>
<path fill-rule="evenodd" clip-rule="evenodd" d="M475.226 113.918L516.883 114.202C516.883 105.984 516.883 87.8474 497.33 87.564C479.477 87.564 475.226 102.3 475.226 113.918ZM463.324 198.365C448.022 186.747 445.755 164.36 445.471 135.738C445.471 107.401 447.455 87.8474 460.774 75.9455C468.708 68.5777 481.177 64.0436 499.313 64.0436C515.466 64.0436 526.234 68.2943 533.035 75.0954C545.504 88.4142 544.654 109.951 544.654 135.738L474.093 135.455C472.959 179.379 482.027 185.33 502.997 185.33C516.316 185.33 526.234 181.362 533.602 178.812L544.087 199.499C530.768 205.166 519.433 208 499.03 208C484.578 207.717 471.259 204.599 463.324 198.365Z" fill="#1A1B1C"/>
<path fill-rule="evenodd" clip-rule="evenodd" d="M567.324 66.3106H596.229V204.316H567.324V66.3106ZM567.324 6.51772H596.229V45.624H567.324V6.51772Z" fill="#1A1B1C"/>
<path fill-rule="evenodd" clip-rule="evenodd" d="M621.733 69.4278L646.954 68.2943L649.788 84.1635C655.172 72.8283 668.491 65.4605 688.61 67.7275L689.177 91.5313C662.256 91.5313 652.621 101.45 652.621 126.67V204.316H622.016V69.4278H621.733Z" fill="#1A1B1C"/>
<path fill-rule="evenodd" clip-rule="evenodd" d="M771.357 136.589C771.357 106.834 770.223 88.1308 748.403 88.1308C726.583 88.1308 724.883 106.834 724.883 136.589C724.883 166.627 726.3 185.046 748.403 185.046C770.223 185.046 771.357 166.343 771.357 136.589ZM712.414 197.232C697.112 184.763 695.411 162.376 695.411 135.738C695.411 109.951 696.828 88.1308 710.997 75.3788C718.932 68.2943 730.55 63.7602 748.403 63.7602C765.973 63.7602 777.875 68.2943 785.809 75.3788C799.695 88.1308 801.112 110.234 801.112 135.738C801.112 161.809 799.695 184.48 784.676 196.665C776.741 203.466 765.406 207.717 748.403 207.717C731.401 207.717 720.065 203.749 712.414 197.232Z" fill="#1A1B1C"/>
<path fill-rule="evenodd" clip-rule="evenodd" d="M294.997 19.8365V3.11717H282.529L284.796 0H276.294L274.027 3.11717H259.008V12.1853H263.826V37.9728H259.008V47.0409H294.714V30.6049H283.945V37.6894H275.161V30.0381H281.678V20.1199H275.161V12.4687H283.945V19.8365H294.997ZM241.155 36.5559C234.921 36.5559 229.82 31.455 229.82 25.2207C229.82 18.9864 234.921 13.8856 241.155 13.8856C247.39 13.8856 252.49 18.9864 252.49 25.2207C252.49 31.455 247.39 36.5559 241.155 36.5559ZM241.155 2.83379C236.905 2.83379 232.937 3.9673 229.537 5.95095V3.11717H196.098H184.763V4.53406C184.763 4.53406 181.362 2.55041 176.828 2.55041C168.044 2.55041 162.093 8.78474 162.093 15.5858C162.093 23.8038 167.76 26.6376 174.845 28.9046C177.678 29.7548 179.945 30.6049 181.362 31.1717C183.063 32.0218 183.913 33.4387 183.913 34.5722C183.913 36.8392 181.929 38.5395 179.379 38.5395C174.278 38.5395 172.861 32.5886 172.861 32.5886H161.809V37.6894H156.992V11.9019H162.376V3.11717H141.123V12.1853H145.94V37.9728H141.123V47.0409H161.809H163.226H173.144V45.624C173.144 45.624 176.545 47.891 181.929 47.891C189.864 47.891 196.948 42.2234 196.948 34.5722C196.948 26.0708 189.58 22.9537 184.48 21.2534C181.929 20.4033 179.095 19.5531 177.678 18.9864C175.695 18.1362 174.845 17.0027 174.845 15.5858C174.845 13.0354 177.112 11.9019 179.095 11.9019C184.48 11.9019 185.613 18.1362 185.613 18.1362H196.665V11.9019V12.1853H202.332V37.9728H197.232V47.0409H218.485V37.9728H213.101V12.1853H218.768V24.9373C218.768 37.1226 228.687 47.3243 241.155 47.3243C253.341 47.3243 263.542 37.406 263.542 24.9373C263.542 12.752 253.624 2.83379 241.155 2.83379Z" fill="#1A1B1C"/>
</svg>
