<svg width="835" height="1373" viewBox="0 0 835 1373" fill="none" xmlns="http://www.w3.org/2000/svg">
<path d="M104.285 1293.23C102.903 1291.02 101.192 1289.09 99.1182 1287.41C97.0559 1285.74 94.7242 1284.43 92.1112 1283.5C89.51 1282.57 86.7798 1282.1 83.9325 1282.1C78.7183 1282.1 74.3009 1283.11 70.6568 1285.13C67.0245 1287.14 64.0717 1289.85 61.8103 1293.23C59.5488 1296.62 57.9084 1300.49 56.8773 1304.81C55.8345 1309.13 55.3189 1313.61 55.3189 1318.23C55.3189 1322.66 55.8345 1326.96 56.8773 1331.14C57.9084 1335.31 59.5488 1339.07 61.8103 1342.41C64.0717 1345.76 67.0245 1348.43 70.6568 1350.45C74.3009 1352.47 78.7183 1353.47 83.9325 1353.47C91.0098 1353.47 96.5404 1351.32 100.524 1346.99C104.508 1342.66 106.945 1336.96 107.824 1329.89H130.239C129.653 1336.47 128.13 1342.41 125.67 1347.72C123.209 1353.04 119.963 1357.56 115.932 1361.29C111.902 1365.03 107.18 1367.89 101.778 1369.84C96.3646 1371.81 90.4239 1372.79 83.9325 1372.79C75.871 1372.79 68.618 1371.39 62.1735 1368.59C55.7407 1365.79 50.3156 1361.93 45.8865 1357.01C41.4573 1352.1 38.071 1346.33 35.7159 1339.69C33.349 1333.05 32.1655 1325.9 32.1655 1318.23C32.1655 1310.37 33.349 1303.07 35.7159 1296.33C38.071 1289.6 41.4573 1283.72 45.8865 1278.71C50.3156 1273.69 55.7407 1269.76 62.1735 1266.91C68.618 1264.06 75.871 1262.63 83.9325 1262.63C89.7326 1262.63 95.2163 1263.47 100.372 1265.14C105.539 1266.81 110.156 1269.25 114.245 1272.44C118.323 1275.64 121.686 1279.6 124.334 1284.31C126.994 1289.03 128.669 1294.44 129.349 1300.53H106.945C106.547 1297.87 105.656 1295.45 104.285 1293.23Z" fill="white"/>
<path d="M165.484 1352.15C168.624 1355.19 173.158 1356.72 179.052 1356.72C183.282 1356.72 186.915 1355.66 189.961 1353.54C193.008 1351.43 194.882 1349.2 195.574 1346.84H214.005C211.052 1355.98 206.529 1362.52 200.436 1366.45C194.332 1370.38 186.961 1372.35 178.314 1372.35C172.315 1372.35 166.913 1371.39 162.097 1369.48C157.27 1367.56 153.192 1364.83 149.853 1361.29C146.513 1357.75 143.924 1353.53 142.108 1348.61C140.291 1343.69 139.377 1338.29 139.377 1332.38C139.377 1326.69 140.315 1321.38 142.19 1316.46C144.053 1311.55 146.701 1307.29 150.146 1303.7C153.591 1300.11 157.692 1297.29 162.461 1295.23C167.229 1293.16 172.514 1292.12 178.314 1292.12C184.805 1292.12 190.453 1293.37 195.269 1295.89C200.085 1298.39 204.045 1301.76 207.15 1305.99C210.244 1310.21 212.482 1315.04 213.853 1320.44C215.235 1325.85 215.727 1331.5 215.329 1337.4H160.316C160.621 1344.18 162.343 1349.1 165.484 1352.15ZM189.153 1312.04C186.645 1309.29 182.837 1307.9 177.728 1307.9C174.377 1307.9 171.6 1308.48 169.397 1309.6C167.183 1310.73 165.413 1312.13 164.089 1313.81C162.753 1315.47 161.816 1317.24 161.277 1319.12C160.738 1320.98 160.422 1322.66 160.316 1324.13H194.39C193.406 1318.81 191.66 1314.78 189.153 1312.04Z" fill="white"/>
<path d="M246.89 1294.19V1308.35H247.183C248.167 1305.99 249.491 1303.8 251.167 1301.79C252.842 1299.77 254.752 1298.05 256.92 1296.63C259.088 1295.2 261.396 1294.1 263.845 1293.3C266.306 1292.52 268.872 1292.13 271.52 1292.13C272.891 1292.13 274.414 1292.38 276.09 1292.87V1312.33C275.105 1312.13 273.922 1311.97 272.551 1311.82C271.18 1311.66 269.844 1311.59 268.567 1311.59C264.736 1311.59 261.49 1312.24 258.83 1313.51C256.182 1314.79 254.038 1316.54 252.421 1318.75C250.804 1320.96 249.644 1323.54 248.952 1326.49C248.273 1329.44 247.921 1332.64 247.921 1336.07V1370.44H226.982V1294.19H246.89Z" fill="white"/>
<path d="M334.341 1294.19V1308.21H319.003V1345.96C319.003 1349.5 319.589 1351.85 320.772 1353.04C321.956 1354.21 324.311 1354.81 327.85 1354.81C329.033 1354.81 330.158 1354.76 331.236 1354.65C332.326 1354.56 333.357 1354.41 334.341 1354.21V1370.44C332.572 1370.73 330.603 1370.93 328.436 1371.02C326.28 1371.12 324.17 1371.18 322.097 1371.18C318.851 1371.18 315.781 1370.95 312.887 1370.51C309.981 1370.06 307.426 1369.21 305.212 1367.93C302.997 1366.65 301.251 1364.84 299.974 1362.47C298.697 1360.11 298.064 1357.01 298.064 1353.18V1308.21H285.375V1294.19H298.064V1271.33H319.003V1294.19H334.341Z" fill="white"/>
<path d="M344.218 1265.14H365.157V1282.4H344.218V1265.14ZM365.157 1370.43H344.218V1294.19H365.157V1370.43Z" fill="white"/>
<path d="M372.974 1308.2V1294.19H385.512V1288.29C385.512 1281.51 387.621 1275.96 391.851 1271.63C396.081 1267.31 402.467 1265.14 411.02 1265.14C412.883 1265.14 414.758 1265.21 416.621 1265.36C418.496 1265.5 420.312 1265.63 422.081 1265.73V1281.36C419.621 1281.06 417.066 1280.92 414.418 1280.92C411.559 1280.92 409.52 1281.58 408.29 1282.9C407.06 1284.24 406.45 1286.48 406.45 1289.62V1294.19H420.91V1308.2H406.45V1370.43H385.512V1308.2H372.974Z" fill="white"/>
<path d="M429.896 1265.14H450.834V1282.4H429.896V1265.14ZM450.846 1370.43H429.907V1294.19H450.846V1370.43Z" fill="white"/>
<path d="M503.042 1307.91C499.703 1307.91 496.902 1308.67 494.629 1310.19C492.379 1311.72 490.528 1313.69 489.11 1316.09C487.681 1318.5 486.673 1321.16 486.087 1324.06C485.49 1326.96 485.197 1329.83 485.197 1332.68C485.197 1335.43 485.49 1338.25 486.087 1341.09C486.673 1343.94 487.634 1346.52 488.958 1348.84C490.282 1351.15 492.075 1353.03 494.348 1354.51C496.598 1355.99 499.351 1356.72 502.597 1356.72C507.612 1356.72 511.467 1355.32 514.173 1352.52C516.88 1349.72 518.579 1345.96 519.271 1341.23H539.471C538.088 1351.37 534.163 1359.08 527.672 1364.39C521.18 1369.69 512.873 1372.35 502.749 1372.35C497.043 1372.35 491.805 1371.39 487.048 1369.48C482.267 1367.56 478.213 1364.88 474.874 1361.45C471.534 1358 468.921 1353.9 467.058 1349.13C465.195 1344.36 464.258 1339.12 464.258 1333.42C464.258 1327.52 465.113 1322.04 466.836 1316.98C468.558 1311.92 471.089 1307.55 474.428 1303.86C477.78 1300.16 481.857 1297.29 486.673 1295.23C491.489 1293.16 496.996 1292.13 503.194 1292.13C507.706 1292.13 512.064 1292.72 516.247 1293.9C520.419 1295.08 524.157 1296.87 527.449 1299.29C530.742 1301.69 533.425 1304.69 535.487 1308.27C537.549 1311.87 538.733 1316.12 539.026 1321.03H518.532C517.15 1312.28 511.994 1307.91 503.042 1307.91Z" fill="white"/>
<path d="M549.641 1317.64C549.934 1312.73 551.164 1308.64 553.332 1305.4C555.488 1302.16 558.241 1299.55 561.581 1297.58C564.92 1295.62 568.681 1294.22 572.865 1293.39C577.048 1292.54 581.242 1292.13 585.472 1292.13C589.304 1292.13 593.194 1292.4 597.131 1292.94C601.056 1293.48 604.642 1294.53 607.888 1296.1C611.133 1297.69 613.793 1299.87 615.855 1302.68C617.918 1305.48 618.949 1309.18 618.949 1313.81V1353.47C618.949 1356.92 619.148 1360.21 619.546 1363.36C619.933 1366.5 620.624 1368.87 621.608 1370.44H600.365C599.978 1369.26 599.65 1368.05 599.416 1366.82C599.17 1365.6 598.994 1364.35 598.889 1363.06C595.549 1366.5 591.612 1368.92 587.101 1370.29C582.578 1371.67 577.95 1372.35 573.239 1372.35C569.595 1372.35 566.209 1371.92 563.057 1371.03C559.905 1370.15 557.163 1368.76 554.808 1366.9C552.441 1365.03 550.602 1362.67 549.278 1359.81C547.942 1356.96 547.286 1353.58 547.286 1349.64C547.286 1345.32 548.047 1341.76 549.559 1338.95C551.094 1336.15 553.062 1333.92 555.464 1332.24C557.878 1330.57 560.632 1329.31 563.725 1328.48C566.818 1327.65 569.947 1326.98 573.087 1326.49C576.239 1326 579.332 1325.61 582.379 1325.3C585.425 1325.01 588.132 1324.57 590.487 1323.98C592.854 1323.39 594.717 1322.53 596.1 1321.4C597.471 1320.28 598.104 1318.63 598.01 1316.46C598.01 1314.2 597.647 1312.4 596.908 1311.08C596.17 1309.76 595.186 1308.72 593.956 1307.99C592.725 1307.25 591.308 1306.76 589.679 1306.51C588.062 1306.26 586.316 1306.13 584.441 1306.13C580.317 1306.13 577.071 1307.03 574.704 1308.79C572.349 1310.56 570.978 1313.52 570.58 1317.64H549.641ZM598.01 1333.12C597.131 1333.92 596.018 1334.53 594.694 1334.97C593.37 1335.42 591.94 1335.78 590.417 1336.07C588.894 1336.37 587.288 1336.62 585.625 1336.81C583.949 1337.01 582.273 1337.26 580.61 1337.55C579.028 1337.84 577.481 1338.24 575.97 1338.73C574.435 1339.22 573.111 1339.89 571.986 1340.72C570.849 1341.56 569.947 1342.61 569.256 1343.89C568.564 1345.16 568.224 1346.79 568.224 1348.76C568.224 1350.63 568.564 1352.2 569.256 1353.47C569.947 1354.76 570.873 1355.76 572.056 1356.5C573.239 1357.23 574.61 1357.75 576.18 1358.05C577.751 1358.35 579.379 1358.49 581.055 1358.49C585.179 1358.49 588.378 1357.81 590.64 1356.43C592.901 1355.05 594.565 1353.4 595.655 1351.49C596.733 1349.57 597.401 1347.63 597.647 1345.66C597.881 1343.69 598.01 1342.12 598.01 1340.95V1333.12Z" fill="white"/>
<path d="M688.557 1360.7C686.097 1364.83 682.886 1367.8 678.902 1369.62C674.918 1371.44 670.419 1372.35 665.404 1372.35C659.709 1372.35 654.683 1371.25 650.359 1369.03C646.035 1366.82 642.473 1363.82 639.673 1360.03C636.872 1356.25 634.752 1351.9 633.334 1346.98C631.904 1342.07 631.189 1336.96 631.189 1331.65C631.189 1326.53 631.904 1321.6 633.334 1316.83C634.752 1312.06 636.872 1307.86 639.673 1304.21C642.473 1300.58 645.988 1297.65 650.218 1295.45C654.448 1293.23 659.358 1292.12 664.959 1292.12C669.482 1292.12 673.782 1293.08 677.871 1295C681.949 1296.92 685.171 1299.75 687.526 1303.49H687.819V1265.14H708.77V1370.44H688.85V1360.7H688.557ZM687.679 1323.02C687.081 1320.13 686.073 1317.56 684.655 1315.36C683.226 1313.14 681.375 1311.35 679.125 1309.97C676.852 1308.6 674.004 1307.9 670.571 1307.9C667.126 1307.9 664.232 1308.6 661.865 1309.97C659.51 1311.35 657.612 1313.17 656.194 1315.43C654.765 1317.69 653.734 1320.27 653.089 1323.17C652.445 1326.07 652.14 1329.09 652.14 1332.24C652.14 1335.19 652.48 1338.13 653.159 1341.09C653.851 1344.04 654.952 1346.66 656.487 1348.97C658.01 1351.29 659.92 1353.16 662.229 1354.59C664.549 1356 667.326 1356.72 670.571 1356.72C674.004 1356.72 676.887 1356.04 679.195 1354.66C681.504 1353.27 683.343 1351.43 684.726 1349.13C686.097 1346.82 687.081 1344.18 687.679 1341.24C688.264 1338.29 688.557 1335.24 688.557 1332.09C688.557 1328.95 688.264 1325.93 687.679 1323.02Z" fill="white"/>
<path d="M722.917 1317.64C723.21 1312.73 724.44 1308.64 726.608 1305.4C728.764 1302.16 731.518 1299.55 734.857 1297.58C738.197 1295.62 741.958 1294.22 746.141 1293.39C750.324 1292.54 754.519 1292.13 758.749 1292.13C762.58 1292.13 766.47 1292.4 770.407 1292.94C774.333 1293.48 777.918 1294.53 781.164 1296.1C784.41 1297.69 787.069 1299.87 789.132 1302.68C791.194 1305.48 792.225 1309.18 792.225 1313.81V1353.47C792.225 1356.92 792.424 1360.21 792.823 1363.36C793.209 1366.5 793.901 1368.87 794.885 1370.44H773.641C773.255 1369.26 772.927 1368.05 772.692 1366.82C772.446 1365.6 772.27 1364.35 772.165 1363.06C768.826 1366.5 764.889 1368.92 760.377 1370.29C755.855 1371.67 751.226 1372.35 746.516 1372.35C742.872 1372.35 739.485 1371.92 736.333 1371.03C733.182 1370.15 730.44 1368.76 728.085 1366.9C725.718 1365.03 723.878 1362.67 722.554 1359.81C721.218 1356.96 720.562 1353.58 720.562 1349.64C720.562 1345.32 721.324 1341.76 722.835 1338.95C724.37 1336.15 726.339 1333.92 728.741 1332.24C731.143 1330.57 733.908 1329.31 737.001 1328.48C740.095 1327.65 743.223 1326.98 746.363 1326.49C749.515 1326 752.609 1325.61 755.655 1325.3C758.702 1325.01 761.409 1324.57 763.764 1323.98C766.131 1323.39 767.994 1322.53 769.376 1321.4C770.747 1320.28 771.38 1318.63 771.286 1316.46C771.286 1314.2 770.923 1312.4 770.185 1311.08C769.447 1309.76 768.462 1308.72 767.232 1307.99C766.002 1307.25 764.572 1306.76 762.955 1306.51C761.338 1306.26 759.592 1306.13 757.718 1306.13C753.593 1306.13 750.347 1307.03 747.98 1308.79C745.625 1310.56 744.254 1313.52 743.856 1317.64H722.917ZM771.286 1333.12C770.407 1333.92 769.294 1334.53 767.97 1334.97C766.646 1335.42 765.217 1335.78 763.693 1336.07C762.17 1336.37 760.565 1336.62 758.901 1336.81C757.225 1337.01 755.55 1337.26 753.886 1337.55C752.304 1337.84 750.757 1338.24 749.246 1338.73C747.711 1339.22 746.387 1339.89 745.262 1340.72C744.125 1341.56 743.223 1342.61 742.532 1343.89C741.841 1345.16 741.501 1346.79 741.501 1348.76C741.501 1350.63 741.841 1352.2 742.532 1353.47C743.223 1354.76 744.149 1355.76 745.332 1356.5C746.516 1357.23 747.887 1357.75 749.457 1358.05C751.027 1358.35 752.656 1358.49 754.331 1358.49C758.456 1358.49 761.655 1357.81 763.916 1356.43C766.177 1355.05 767.841 1353.4 768.931 1351.49C770.009 1349.57 770.677 1347.63 770.923 1345.66C771.157 1343.69 771.286 1342.12 771.286 1340.95V1333.12Z" fill="white"/>
<path d="M108.28 -9.57907e-05V26.7622H31.8242V57.7896H101.987V82.5248H31.8242V118.017H109.897V144.779H0V-9.57907e-05H108.28Z" fill="white"/>
<path d="M156.337 39.95V54.1397H156.747C160.52 48.738 165.09 44.5432 170.433 41.567C175.764 38.6025 181.881 37.1144 188.782 37.1144C195.402 37.1144 201.449 38.3916 206.932 40.9577C212.404 43.5355 216.564 48.0584 219.399 54.5498C222.505 49.9566 226.734 45.9024 232.078 42.3872C237.409 38.872 243.736 37.1144 251.036 37.1144C256.578 37.1144 261.711 37.794 266.444 39.1415C271.166 40.489 275.232 42.6567 278.607 45.6329C281.982 48.6091 284.618 52.4875 286.516 57.2799C288.414 62.084 289.352 67.8606 289.352 74.6215V144.785H260.562V85.378C260.562 81.8628 260.422 78.5468 260.152 75.4417C259.883 72.3249 259.145 69.6299 257.926 67.3216C256.707 65.025 254.915 63.2089 252.548 61.8497C250.181 60.5022 246.982 59.8226 242.916 59.8226C238.862 59.8226 235.581 60.6076 233.085 62.1543C230.578 63.7127 228.621 65.7398 227.203 68.2356C225.785 70.7431 224.836 73.5787 224.368 76.7541C223.887 79.9294 223.653 83.14 223.653 86.3857V144.785H194.863V85.9756C194.863 82.8705 194.793 79.8005 194.664 76.7541C194.524 73.7076 193.949 70.9071 192.93 68.341C191.922 65.775 190.235 63.7127 187.868 62.1543C185.501 60.6076 182.021 59.8226 177.416 59.8226C176.069 59.8226 174.276 60.1272 172.05 60.7365C169.824 61.3458 167.656 62.4941 165.558 64.1814C163.461 65.8687 161.68 68.3059 160.192 71.4813C158.704 74.6567 157.954 78.8163 157.954 83.9485V144.785H129.165V39.95H156.337Z" fill="white"/>
<path d="M339.441 39.9482V53.3294H339.852C343.367 47.6465 347.819 43.5337 353.233 40.9559C358.634 38.3898 364.587 37.1126 371.078 37.1126C379.315 37.1126 386.416 38.6593 392.357 41.7761C398.309 44.8812 403.242 49.0057 407.167 54.1379C411.081 59.2818 413.987 65.2576 415.885 72.0888C417.772 78.92 418.721 86.0441 418.721 93.4845C418.721 100.515 417.772 107.276 415.885 113.755C413.987 120.247 411.116 125.988 407.273 130.992C403.418 135.995 398.614 139.979 392.872 142.955C387.119 145.931 380.405 147.419 372.695 147.419C366.204 147.419 360.228 146.095 354.756 143.459C349.272 140.822 344.785 136.944 341.269 131.8H340.859V181.481H312.07V39.9482H339.441ZM376.855 123.082C380.03 121.196 382.596 118.724 384.553 115.677C386.522 112.642 387.904 109.092 388.713 105.038C389.533 100.984 389.931 96.8591 389.931 92.6761C389.931 88.4813 389.486 84.3568 388.619 80.3026C387.728 76.2484 386.287 72.6278 384.248 69.4524C382.233 66.277 379.62 63.7109 376.445 61.7424C373.269 59.7856 369.379 58.8014 364.786 58.8014C360.052 58.8014 356.103 59.7856 352.928 61.7424C349.753 63.7109 347.175 66.2418 345.218 69.3469C343.261 72.4637 341.879 76.0375 341.058 80.0917C340.25 84.1459 339.852 88.3407 339.852 92.6761C339.852 96.8591 340.285 100.984 341.164 105.038C342.043 109.092 343.46 112.642 345.417 115.677C347.374 118.724 349.987 121.196 353.233 123.082C356.478 124.981 360.392 125.93 364.985 125.93C369.719 125.93 373.679 124.981 376.855 123.082Z" fill="white"/>
<path d="M463.337 39.95V59.4125H463.747C465.095 56.1785 466.911 53.1671 469.219 50.3901C471.516 47.6249 474.152 45.258 477.116 43.2895C480.093 41.3327 483.28 39.8094 486.654 38.7314C490.029 37.6534 493.544 37.1144 497.2 37.1144C499.086 37.1144 501.184 37.4542 503.48 38.1221V64.8961C502.133 64.6267 500.516 64.3806 498.618 64.1814C496.72 63.9822 494.903 63.8767 493.146 63.8767C487.873 63.8767 483.409 64.7555 479.765 66.5131C476.109 68.2707 473.168 70.6728 470.941 73.7076C468.715 76.7541 467.122 80.3044 466.173 84.3586C465.223 88.4128 464.755 92.8067 464.755 97.5405V144.785H435.965V39.95H463.337Z" fill="white"/>
<path d="M542.011 119.641C546.334 123.835 552.556 125.933 560.665 125.933C566.476 125.933 571.48 124.468 575.674 121.562C579.858 118.668 582.424 115.586 583.373 112.341H608.717C604.663 124.913 598.453 133.901 590.063 139.302C581.685 144.716 571.538 147.422 559.645 147.422C551.408 147.422 543.967 146.098 537.347 143.462C530.715 140.826 525.103 137.076 520.521 132.213C515.916 127.351 512.366 121.539 509.87 114.778C507.363 108.017 506.121 100.577 506.121 92.4682C506.121 84.6294 507.398 77.3295 509.976 70.5686C512.542 63.8077 516.186 57.9608 520.92 53.0278C525.653 48.0949 531.301 44.2047 537.851 41.3691C544.401 38.5335 551.677 37.1157 559.645 37.1157C568.574 37.1157 576.342 38.8382 582.974 42.2831C589.595 45.7279 595.031 50.3563 599.297 56.1798C603.55 61.9798 606.62 68.6118 608.518 76.0406C610.405 83.4811 611.084 91.2496 610.545 99.358H534.91C535.32 108.697 537.675 115.446 542.011 119.641ZM574.55 64.4873C571.105 60.7027 565.867 58.8045 558.837 58.8045C554.244 58.8045 550.424 59.5895 547.389 61.1362C544.342 62.6946 541.905 64.6279 540.089 66.9128C538.261 69.2211 536.972 71.6466 536.222 74.2244C535.484 76.7905 535.039 79.0871 534.91 81.1142H581.756C580.397 73.8143 578.006 68.272 574.55 64.4873Z" fill="white"/>
<path d="M651.808 118.727C653.086 120.965 654.749 122.781 656.777 124.199C658.804 125.628 661.135 126.671 663.772 127.351C666.408 128.03 669.15 128.358 671.986 128.358C674.013 128.358 676.145 128.124 678.371 127.655C680.598 127.175 682.637 126.437 684.453 125.417C686.281 124.41 687.804 123.062 689.023 121.363C690.229 119.676 690.839 117.543 690.839 114.977C690.839 110.653 687.968 107.408 682.226 105.24C676.485 103.084 668.47 100.916 658.194 98.7487C654 97.8113 649.91 96.6982 645.926 95.4093C641.942 94.1321 638.392 92.4448 635.287 90.3357C632.17 88.25 629.674 85.6136 627.776 82.4265C625.89 79.2629 624.941 75.3727 624.941 70.7795C624.941 64.0187 626.265 58.4764 628.901 54.141C631.537 49.8173 635.017 46.4076 639.341 43.9118C643.665 41.4043 648.528 39.6467 653.941 38.6273C659.343 37.6196 664.885 37.1157 670.568 37.1157C676.239 37.1157 681.746 37.6547 687.089 38.7327C692.432 39.8107 697.201 41.6386 701.384 44.2047C705.579 46.7825 709.059 50.1922 711.836 54.4456C714.601 58.7107 716.254 64.0772 716.804 70.5686H689.421C689.023 65.0263 686.925 61.2768 683.14 59.32C679.356 57.3632 674.891 56.379 669.759 56.379C668.131 56.379 666.373 56.4727 664.486 56.6836C662.588 56.8828 660.866 57.3281 659.307 57.996C657.761 58.6756 656.437 59.6481 655.359 60.937C654.269 62.2259 653.73 63.9483 653.73 66.1043C653.73 68.6821 654.679 70.7795 656.577 72.3965C658.464 74.0135 660.936 75.3376 663.983 76.3452C667.017 77.3647 670.497 78.2786 674.423 79.0871C678.336 79.8956 682.32 80.7744 686.386 81.7235C690.569 82.6726 694.659 83.8209 698.654 85.1684C702.638 86.5159 706.188 88.3086 709.293 90.5466C712.399 92.7729 714.906 95.5499 716.804 98.8542C718.691 102.17 719.64 106.26 719.64 111.122C719.64 118.024 718.245 123.8 715.48 128.464C712.715 133.127 709.094 136.877 704.63 139.712C700.166 142.548 695.069 144.552 689.327 145.7C683.574 146.848 677.727 147.422 671.786 147.422C665.705 147.422 659.753 146.813 653.941 145.594C648.117 144.376 642.962 142.349 638.427 139.513C633.893 136.678 630.178 132.916 627.272 128.265C624.366 123.601 622.773 117.754 622.515 110.724H649.887C649.887 113.829 650.519 116.5 651.808 118.727Z" fill="white"/>
<path d="M735.25 72.1915C735.66 65.4306 737.347 59.8297 740.312 55.3537C743.288 50.9011 747.073 47.3274 751.678 44.6089C756.271 41.914 761.438 39.9806 767.191 38.8323C772.933 37.684 778.71 37.1099 784.521 37.1099C789.794 37.1099 795.137 37.4848 800.539 38.223C805.952 38.9729 810.885 40.4259 815.35 42.5819C819.802 44.7496 823.458 47.7609 826.293 51.6159C829.141 55.4592 830.559 60.5679 830.559 66.9187V121.463C830.559 126.196 830.828 130.719 831.367 135.055C831.906 139.378 832.843 142.624 834.203 144.78H805.003C804.464 143.163 804.019 141.511 803.691 139.812C803.351 138.125 803.105 136.402 802.976 134.645C798.383 139.378 792.969 142.694 786.759 144.581C780.537 146.467 774.175 147.417 767.695 147.417C762.692 147.417 758.029 146.819 753.705 145.6C749.369 144.382 745.596 142.495 742.351 139.917C739.105 137.351 736.574 134.106 734.746 130.18C732.918 126.267 732.004 121.603 732.004 116.19C732.004 110.249 733.047 105.351 735.145 101.496C737.242 97.6414 739.949 94.5715 743.253 92.2632C746.569 89.9666 750.354 88.2442 754.619 87.0959C758.872 85.9476 763.161 85.0336 767.496 84.354C771.82 83.6861 776.073 83.1354 780.268 82.737C784.451 82.3269 788.177 81.7176 791.411 80.9091C794.657 80.1006 797.223 78.9172 799.121 77.3588C801.019 75.8121 801.898 73.5507 801.757 70.5745C801.757 67.4577 801.254 64.9853 800.234 63.1691C799.227 61.3412 797.867 59.9235 796.18 58.9158C794.493 57.8964 792.536 57.2168 790.298 56.877C788.072 56.5489 785.67 56.3731 783.104 56.3731C777.421 56.3731 772.968 57.5917 769.722 60.0289C766.477 62.4544 764.578 66.5086 764.039 72.1915H735.25ZM801.757 93.4818C800.539 94.5715 799.027 95.4034 797.199 96.0127C795.372 96.622 793.415 97.1376 791.317 97.536C789.22 97.9461 787.029 98.2859 784.721 98.5554C782.424 98.8249 780.127 99.153 777.831 99.5631C775.675 99.9732 773.542 100.512 771.445 101.192C769.347 101.871 767.52 102.774 765.973 103.922C764.414 105.082 763.161 106.535 762.223 108.281C761.274 110.05 760.794 112.276 760.794 114.971C760.794 117.549 761.274 119.717 762.223 121.463C763.161 123.22 764.45 124.615 766.067 125.622C767.695 126.63 769.582 127.345 771.749 127.755C773.905 128.153 776.143 128.352 778.44 128.352C784.111 128.352 788.505 127.415 791.622 125.517C794.727 123.63 797.024 121.369 798.512 118.721C800 116.096 800.914 113.425 801.254 110.718C801.582 108.011 801.757 105.855 801.757 104.227V93.4818Z" fill="white"/>
<path d="M824.381 1198.03H5.89307V1144.52H824.381V1198.03Z" fill="white"/>
<path d="M418.624 406.99C428.865 406.99 439.891 407.108 451.702 407.318C463.501 407.553 475.195 408.221 486.784 409.322C498.36 410.447 509.175 412.111 519.194 414.337C529.212 416.575 537.789 419.915 544.913 424.367C560.509 433.718 573.761 446.642 584.682 463.116C595.59 479.602 601.051 499.873 601.051 523.929C601.051 549.32 594.922 571.267 582.678 589.757C570.422 608.247 552.939 621.944 530.22 630.849V632.185C559.618 638.43 582.104 651.788 597.711 672.282C613.295 692.775 621.099 717.721 621.099 747.12C621.099 764.497 617.982 781.428 611.737 797.903C605.503 814.389 596.258 828.977 584.014 841.679C571.757 854.368 556.619 864.621 538.574 872.413C520.529 880.217 499.696 884.107 476.086 884.107H245.548V406.99H418.624ZM436.001 612.137C472.078 612.137 498.02 605.786 513.85 593.096C529.657 580.395 537.566 561.354 537.566 535.963C537.566 519.031 534.895 505.673 529.552 495.866C524.209 486.07 516.85 478.489 507.5 473.146C498.138 467.791 487.334 464.358 475.09 462.788C462.833 461.23 449.804 460.445 436.001 460.445H309.032V612.137H436.001ZM468.071 830.653C496.134 830.653 518.08 823.083 533.899 807.933C549.705 792.794 557.615 771.844 557.615 745.116C557.615 729.532 554.72 716.608 548.932 706.356C543.132 696.115 535.445 687.983 525.872 681.972C516.288 675.949 505.262 671.719 492.795 669.27C480.327 666.833 467.403 665.591 454.034 665.591H309.032V830.653H468.071Z" fill="white"/>
<path d="M771.346 644.066C771.346 840.108 612.448 999.018 416.371 999.018C220.364 999.018 61.4655 840.108 61.4655 644.066C61.4655 448.059 220.364 289.172 416.371 289.172C612.448 289.172 771.346 448.059 771.346 644.066ZM416.371 231.266C188.528 231.266 3.79297 416 3.79297 643.867C3.79297 871.733 188.528 1056.47 416.371 1056.47C644.295 1056.47 829.03 871.733 829.03 643.867C829.03 416 644.295 231.266 416.371 231.266Z" fill="white"/>
<path d="M763.293 1038.3C765.039 1034.48 767.371 1031.23 770.3 1028.55C773.229 1025.87 776.616 1023.79 780.459 1022.33C784.302 1020.87 788.333 1020.13 792.528 1020.13C796.734 1020.13 800.753 1020.87 804.608 1022.33C808.452 1023.79 811.826 1025.87 814.767 1028.55C817.697 1031.23 820.028 1034.48 821.774 1038.3C823.52 1042.12 824.387 1046.37 824.387 1051.07C824.387 1055.83 823.52 1060.12 821.774 1063.94C820.028 1067.75 817.697 1071.02 814.767 1073.72C811.826 1076.43 808.452 1078.5 804.608 1079.94C800.753 1081.38 796.734 1082.1 792.528 1082.1C788.333 1082.1 784.302 1081.38 780.459 1079.94C776.616 1078.5 773.229 1076.43 770.3 1073.72C767.371 1071.02 765.039 1067.75 763.293 1063.94C761.547 1060.12 760.68 1055.83 760.68 1051.07C760.68 1046.37 761.547 1042.12 763.293 1038.3ZM770.956 1060.87C772.187 1063.84 773.839 1066.43 775.936 1068.62C778.045 1070.8 780.518 1072.5 783.365 1073.72C786.212 1074.94 789.27 1075.55 792.528 1075.55C795.738 1075.55 798.761 1074.94 801.62 1073.72C804.468 1072.5 806.94 1070.8 809.037 1068.62C811.147 1066.43 812.81 1063.84 814.064 1060.87C815.306 1057.88 815.927 1054.61 815.927 1051.07C815.927 1047.53 815.306 1044.29 814.064 1041.32C812.81 1038.37 811.147 1035.82 809.037 1033.66C806.94 1031.5 804.468 1029.82 801.62 1028.6C798.761 1027.38 795.738 1026.77 792.528 1026.77C789.27 1026.77 786.212 1027.38 783.365 1028.6C780.518 1029.82 778.045 1031.5 775.936 1033.66C773.839 1035.82 772.187 1038.37 770.956 1041.32C769.749 1044.29 769.14 1047.53 769.14 1051.07C769.14 1054.61 769.749 1057.88 770.956 1060.87ZM793.278 1033.66C797.648 1033.66 801.011 1034.43 803.355 1035.98C805.71 1037.53 806.881 1040.19 806.881 1043.94C806.881 1045.54 806.647 1046.91 806.178 1048.05C805.71 1049.19 805.054 1050.11 804.233 1050.83C803.401 1051.54 802.429 1052.1 801.327 1052.49C800.214 1052.88 799.031 1053.12 797.754 1053.23L807.046 1068.41H799.828L791.368 1053.57H787.056V1068.41H780.166V1033.66H793.278ZM793.196 1048.17C795.188 1048.17 796.816 1047.9 798.094 1047.35C799.359 1046.78 800.003 1045.46 800.003 1043.36C800.003 1042.42 799.769 1041.67 799.336 1041.12C798.89 1040.57 798.328 1040.14 797.637 1039.84C796.945 1039.53 796.172 1039.33 795.305 1039.21C794.449 1039.1 793.641 1039.05 792.868 1039.05H787.056V1048.17H793.196Z" fill="white"/>
</svg>
